<svg viewBox="0 0 48 32" fill="none" xmlns="http://www.w3.org/2000/svg">
  <rect width="48" height="32" rx="4" fill="#1A1F71"/>
  <path d="M19.5 21H17L18.8 11H21.3L19.5 21ZM15.3 11L12.9 17.9L12.6 16.4L12.6 16.4L11.7 12C11.7 12 11.6 11 10.3 11H6.1L6 11.2C6 11.2 7.5 11.5 9.2 12.5L11.4 21H14L18 11H15.3ZM35 21H37.5L35.3 11H33.3C32.2 11 31.9 11.9 31.9 11.9L28.2 21H30.8L31.3 19.6H34.5L35 21ZM32.1 17.6L33.4 14L34.2 17.6H32.1ZM28.5 13.4L28.9 11.2C28.9 11.2 27.5 10.7 26.1 10.7C24.5 10.7 21 11.5 21 14.3C21 16.9 24.6 16.9 24.6 18.2C24.6 19.5 21.4 19.2 20.1 18.2L19.6 20.5C19.6 20.5 21.1 21.2 23.1 21.2C25.1 21.2 28.5 20 28.5 17.4C28.5 14.7 24.9 14.5 24.9 13.4C24.9 12.3 27.3 12.5 28.5 13.4Z" fill="white"/>
</svg>
